<svg width="205" height="30" viewBox="0 0 205 30" fill="none" xmlns="http://www.w3.org/2000/svg">
    <path
        d="M5.8 28.48C5.61333 29.0667 4.98667 29.36 3.92 29.36C2.88 29.36 1.84 29 0.8 28.28C1.62667 26.04 3.26667 22.32 5.72 17.12C8.2 11.8933 9.85333 8 10.68 5.44C10.76 5.12 10.8 4.85333 10.8 4.64C10.8 4.4 10.7067 4.08 10.52 3.68C10.3333 3.28 10.1333 2.96 9.92 2.72L9.64 2.36L9.8 1.56C12.1733 0.919998 14.9867 0.599998 18.24 0.599998L21.32 0.759999C21.5867 0.999999 21.8533 1.62667 22.12 2.64C22.3867 3.65333 22.56 5.17333 22.64 7.2C22.72 9.22667 22.7733 13.0267 22.8 18.6C22.8267 22.8933 23.36 25.04 24.4 25.04C24.6667 25.04 25.24 24.9067 26.12 24.64L26.52 24.52L27.36 26.8C26.2667 27.6267 24.9867 28.28 23.52 28.76C22.0533 29.24 20.7333 29.48 19.56 29.48C17.8533 29.48 16.68 28.96 16.04 27.92C15.4267 26.8533 15.12 25.4933 15.12 23.84C15.12 22.16 15.1333 21 15.16 20.36C14.6533 20.2533 13.6667 20.2 12.2 20.2C10.7333 20.2 9.46667 20.3467 8.4 20.64C7.41333 23.28 6.54667 25.8933 5.8 28.48ZM15.32 17C15.4533 14.68 15.52 12.3467 15.52 10C15.52 7.65333 15.3867 5.94667 15.12 4.88C14.8533 4.88 14.6667 4.90667 14.56 4.96C13.9733 6.74667 12.4 10.76 9.84 17H15.32ZM43.1831 29.96C42.0631 29.96 40.4231 29.3733 38.2631 28.2C36.1298 27.0267 34.8898 26.4 34.5431 26.32C32.9431 28.4267 31.4498 29.48 30.0631 29.48C29.6898 29.48 29.1298 28.96 28.3831 27.92C27.6365 26.88 27.2631 25.9067 27.2631 25C27.2631 24.6 27.6765 24.1067 28.5031 23.52C29.3298 22.9067 30.2765 22.48 31.3431 22.24C32.0631 20.56 32.7698 18.0133 33.4631 14.6C34.1831 11.1867 34.5431 8.18667 34.5431 5.6C34.5431 5.17333 34.3965 4.69333 34.1031 4.16C33.8365 3.62667 33.5698 3.2 33.3031 2.88L32.8631 2.4L32.9831 1.6C34.4498 0.933331 37.4898 0.599998 42.1031 0.599998C42.5298 1.26666 42.7431 2.4 42.7431 4C42.7431 5.6 42.0365 8.37333 40.6231 12.32C39.2098 16.2667 37.7965 19.6933 36.3831 22.6C39.0498 23.2933 41.5965 23.64 44.0231 23.64C44.5831 23.64 45.0365 23.5067 45.3831 23.24C45.7565 22.9733 46.1565 22.4133 46.5831 21.56L48.7831 22.32C48.3565 24.8533 47.7031 26.76 46.8231 28.04C45.9698 29.32 44.7565 29.96 43.1831 29.96ZM73.3197 4.16C74.093 5.22667 74.6664 6.36 75.0397 7.56C75.413 8.76 75.5997 10.1867 75.5997 11.84C75.5997 13.4933 75.3064 15.3333 74.7197 17.36C74.1597 19.3867 73.3064 21.3333 72.1597 23.2C71.0397 25.04 69.4797 26.5467 67.4797 27.72C65.4797 28.8933 63.1997 29.48 60.6397 29.48C57.5197 29.48 55.0664 28.4267 53.2797 26.32C51.493 24.2133 50.5997 21.56 50.5997 18.36C50.5997 15.16 51.1997 12.24 52.3997 9.6C53.6264 6.93333 55.3597 4.77333 57.5997 3.12C59.8664 1.44 62.3864 0.599998 65.1597 0.599998C67.0264 0.599998 68.653 0.919998 70.0397 1.56C71.453 2.2 72.5464 3.06666 73.3197 4.16ZM59.9197 25.88C60.3997 26.2533 61.093 26.44 61.9997 26.44C62.933 26.44 63.7997 25.9067 64.5997 24.84C65.4264 23.7467 66.0664 22.3467 66.5197 20.64C67.373 17.28 67.7997 13.8 67.7997 10.2C67.7997 5.82667 66.733 3.64 64.5997 3.64C63.5864 3.64 62.6664 4.12 61.8397 5.08C61.0397 6.01333 60.3997 7.24 59.9197 8.76C58.933 11.8533 58.4397 15.1733 58.4397 18.72C58.4397 22.6933 58.933 25.08 59.9197 25.88ZM86.4719 29.52C83.1119 29.52 80.5252 28.44 78.7119 26.28C77.7252 25.1067 77.2319 23.68 77.2319 22C77.2319 19.7333 78.0319 17.88 79.6319 16.44C81.2319 14.9733 83.1252 14.12 85.3119 13.88C81.9519 12.9733 80.2719 11.04 80.2719 8.08C80.2719 5.78667 81.2585 3.97333 83.2319 2.64C85.2052 1.28 87.4452 0.599998 89.9519 0.599998C92.4852 0.599998 94.5919 1.12 96.2719 2.16C97.9519 3.2 98.7919 4.57333 98.7919 6.28C98.7919 7.26667 98.5252 8.2 97.9919 9.08L97.7119 9.52C96.6185 9.52 95.4452 9.36 94.1919 9.04C92.9385 8.69333 91.9919 8.25333 91.3519 7.72L91.7519 3.64C91.3519 3.45333 90.9519 3.36 90.5519 3.36C89.7252 3.36 89.0852 3.8 88.6319 4.68C88.2052 5.56 87.9919 6.58667 87.9919 7.76C87.9919 8.93333 88.1119 9.86667 88.3519 10.56C88.6185 11.2533 89.0185 11.7867 89.5519 12.16C90.1119 12.5067 90.5919 12.76 90.9919 12.92C91.4185 13.0533 92.0052 13.2 92.7519 13.36L92.4319 15.68C90.5919 15.68 88.8985 16.2 87.3519 17.24C85.8052 18.28 85.0319 19.68 85.0319 21.44C85.0319 22.6933 85.4319 23.6133 86.2319 24.2C87.0319 24.76 87.9785 25.04 89.0719 25.04C90.1919 25.04 91.3652 24.76 92.5919 24.2C93.8185 23.64 94.8719 22.9333 95.7519 22.08L97.5519 23.88C96.4052 25.4533 94.8185 26.7867 92.7919 27.88C90.7652 28.9733 88.6585 29.52 86.4719 29.52ZM109.277 23.88C109.277 22.8133 109.503 20.6267 109.957 17.32C110.437 14.0133 110.677 11.4533 110.677 9.64C110.677 7.82667 110.597 6.6 110.437 5.96C110.17 5.05333 109.637 4.01333 108.837 2.84L108.437 2.32L108.597 1.52C111.157 0.986666 114.41 0.719999 118.357 0.719999C118.81 1.62667 119.037 2.73333 119.037 4.04C119.037 6.6 118.703 9.96 118.037 14.12C117.37 18.28 117.037 20.72 117.037 21.44C117.037 22.96 117.383 23.72 118.077 23.72C118.877 23.72 119.89 23.04 121.117 21.68C122.343 20.2933 123.45 18.56 124.437 16.48C125.45 14.3733 126.023 12.44 126.157 10.68L121.877 7.8C122.09 6.25333 122.477 4.90667 123.037 3.76C123.597 2.58667 124.13 1.77333 124.637 1.32C125.143 0.866665 125.543 0.639998 125.837 0.639998C127.543 0.639998 128.877 1.14667 129.837 2.16C130.797 3.14667 131.277 4.30667 131.277 5.64C131.277 7.64 130.757 10.0133 129.717 12.76C128.703 15.5067 127.41 18.12 125.837 20.6C124.263 23.0533 122.423 25.1467 120.317 26.88C118.21 28.6133 116.277 29.48 114.517 29.48C112.783 29.48 111.477 28.96 110.597 27.92C109.717 26.88 109.277 25.5333 109.277 23.88ZM140.378 29.52C137.018 29.52 134.431 28.44 132.618 26.28C131.631 25.1067 131.138 23.68 131.138 22C131.138 19.7333 131.938 17.88 133.538 16.44C135.138 14.9733 137.031 14.12 139.218 13.88C135.858 12.9733 134.178 11.04 134.178 8.08C134.178 5.78667 135.165 3.97333 137.138 2.64C139.111 1.28 141.351 0.599998 143.858 0.599998C146.391 0.599998 148.498 1.12 150.178 2.16C151.858 3.2 152.698 4.57333 152.698 6.28C152.698 7.26667 152.431 8.2 151.898 9.08L151.618 9.52C150.525 9.52 149.351 9.36 148.098 9.04C146.845 8.69333 145.898 8.25333 145.258 7.72L145.658 3.64C145.258 3.45333 144.858 3.36 144.458 3.36C143.631 3.36 142.991 3.8 142.538 4.68C142.111 5.56 141.898 6.58667 141.898 7.76C141.898 8.93333 142.018 9.86667 142.258 10.56C142.525 11.2533 142.925 11.7867 143.458 12.16C144.018 12.5067 144.498 12.76 144.898 12.92C145.325 13.0533 145.911 13.2 146.658 13.36L146.338 15.68C144.498 15.68 142.805 16.2 141.258 17.24C139.711 18.28 138.938 19.68 138.938 21.44C138.938 22.6933 139.338 23.6133 140.138 24.2C140.938 24.76 141.885 25.04 142.978 25.04C144.098 25.04 145.271 24.76 146.498 24.2C147.725 23.64 148.778 22.9333 149.658 22.08L151.458 23.88C150.311 25.4533 148.725 26.7867 146.698 27.88C144.671 28.9733 142.565 29.52 140.378 29.52ZM160.855 28.24C159.282 28.9333 157.362 29.28 155.095 29.28C154.322 29.28 153.628 29.2133 153.015 29.08C153.015 27.32 153.762 23.36 155.255 17.2C156.775 11.0133 157.535 7.12 157.535 5.52C157.535 4.88 157.055 4.02667 156.095 2.96L155.655 2.44L155.775 1.56C159.402 0.919998 163.428 0.599998 167.855 0.599998C170.522 0.599998 172.628 1.12 174.175 2.16C175.722 3.17333 176.495 4.66667 176.495 6.64C176.495 8.58667 175.962 10.3733 174.895 12C173.828 13.6 172.308 14.8533 170.335 15.76C171.215 18.7467 172.055 21.08 172.855 22.76C173.655 24.44 174.308 25.28 174.815 25.28C175.242 25.28 175.908 25.12 176.815 24.8L177.295 24.64L178.255 26.8C175.908 28.5867 173.428 29.48 170.815 29.48C168.228 29.48 166.535 28.1733 165.735 25.56C165.042 23.2667 164.482 20.4267 164.055 17.04H162.655C161.455 22.64 160.855 26.3733 160.855 28.24ZM164.295 13.56C165.148 13.56 165.882 13.2933 166.495 12.76C167.135 12.2267 167.615 11.5333 167.935 10.68C168.522 9 168.815 7.37333 168.815 5.8C168.815 4.22666 168.108 3.44 166.695 3.44C166.268 3.44 165.842 3.48 165.415 3.56C165.388 4.38667 164.735 7.69333 163.455 13.48C163.642 13.5333 163.922 13.56 164.295 13.56ZM183.3 28.48C183.113 29.0667 182.487 29.36 181.42 29.36C180.38 29.36 179.34 29 178.3 28.28C179.127 26.04 180.767 22.32 183.22 17.12C185.7 11.8933 187.353 8 188.18 5.44C188.26 5.12 188.3 4.85333 188.3 4.64C188.3 4.4 188.207 4.08 188.02 3.68C187.833 3.28 187.633 2.96 187.42 2.72L187.14 2.36L187.3 1.56C189.673 0.919998 192.487 0.599998 195.74 0.599998L198.82 0.759999C199.087 0.999999 199.353 1.62667 199.62 2.64C199.887 3.65333 200.06 5.17333 200.14 7.2C200.22 9.22667 200.273 13.0267 200.3 18.6C200.327 22.8933 200.86 25.04 201.9 25.04C202.167 25.04 202.74 24.9067 203.62 24.64L204.02 24.52L204.86 26.8C203.767 27.6267 202.487 28.28 201.02 28.76C199.553 29.24 198.233 29.48 197.06 29.48C195.353 29.48 194.18 28.96 193.54 27.92C192.927 26.8533 192.62 25.4933 192.62 23.84C192.62 22.16 192.633 21 192.66 20.36C192.153 20.2533 191.167 20.2 189.7 20.2C188.233 20.2 186.967 20.3467 185.9 20.64C184.913 23.28 184.047 25.8933 183.3 28.48ZM192.82 17C192.953 14.68 193.02 12.3467 193.02 10C193.02 7.65333 192.887 5.94667 192.62 4.88C192.353 4.88 192.167 4.90667 192.06 4.96C191.473 6.74667 189.9 10.76 187.34 17H192.82Z"
        fill="#36B56C" />
</svg>