<svg width="16" height="20" viewBox="0 0 16 20" fill="none" xmlns="http://www.w3.org/2000/svg">
    <path
        d="M6.74166 1.85833L2.58334 3.41666C1.62501 3.77499 0.841675 4.90832 0.841675 5.93332V12.125C0.841675 13.1083 1.49168 14.4 2.28335 14.9916L5.86667 17.6667C7.04167 18.55 8.97499 18.55 10.15 17.6667L13.7333 14.9916C14.525 14.4 15.175 13.1083 15.175 12.125V5.93332C15.175 4.90832 14.3917 3.77499 13.4333 3.41666L9.275 1.85833C8.56667 1.6 7.43333 1.6 6.74166 1.85833Z"
        stroke="#5B758E" stroke-width="1.5" stroke-linecap="round" stroke-linejoin="round" />
    <path
        d="M8.00007 9.10001C7.96674 9.10001 7.92507 9.10001 7.89173 9.10001C7.1084 9.07501 6.4834 8.425 6.4834 7.63333C6.4834 6.825 7.14174 6.16666 7.95007 6.16666C8.75841 6.16666 9.41675 6.825 9.41675 7.63333C9.40842 8.43333 8.78341 9.07501 8.00007 9.10001Z"
        stroke="#5B758E" stroke-width="1.5" stroke-linecap="round" stroke-linejoin="round" />
    <path
        d="M6.3417 11.4333C5.5417 11.9667 5.5417 12.8417 6.3417 13.375C7.25003 13.9833 8.7417 13.9833 9.65003 13.375C10.45 12.8417 10.45 11.9667 9.65003 11.4333C8.75003 10.825 7.25837 10.825 6.3417 11.4333Z"
        stroke="#5B758E" stroke-width="1.5" stroke-linecap="round" stroke-linejoin="round" />
</svg>