<svg width="176" height="48" viewBox="0 0 176 48" fill="none" xmlns="http://www.w3.org/2000/svg">
    <rect y="3" width="176" height="40" rx="10" fill="#1E2F97" />
    <path
        d="M13 33L17.0312 14.8125H17.5L19.375 23.5625L17.3125 33H13ZM19.6562 30.3438L20.5938 26.0312H21.7188L18.4062 11.125H22.75L27.9062 33H23.5312L22.9062 30.3438H19.6562ZM35.685 28.3125L39.56 27.5938C39.56 28.2812 39.9142 28.7708 40.6225 29.0625C40.8725 29.1458 41.1017 29.1979 41.31 29.2188V33.1562C38.8933 33.1562 37.2162 32.3021 36.2787 30.5938C35.8829 29.8854 35.685 29.125 35.685 28.3125ZM35.8725 20.0625C35.8725 18.125 36.7787 16.6875 38.5912 15.75C39.4871 15.2708 40.3725 15.0312 41.2475 15.0312V18.9062C40.2267 18.9271 39.7162 19.3125 39.7162 20.0625C39.7162 20.8542 40.6746 21.5521 42.5912 22.1562C43.2996 22.3854 44.1329 22.6042 45.0912 22.8125C46.5287 23.0833 47.5496 23.8854 48.1537 25.2188C48.4662 25.9062 48.6225 26.6667 48.6225 27.5C48.6225 29.6667 47.7683 31.2604 46.06 32.2812C45.0808 32.8646 43.9662 33.1562 42.7162 33.1562V29.2188C43.4454 29.2188 43.9871 28.9792 44.3412 28.5C44.5079 28.2708 44.5912 28.0208 44.5912 27.75C44.5912 27.1042 43.7996 26.5417 42.2162 26.0625C41.9662 26 41.5808 25.8958 41.06 25.75C39.9558 25.4583 39.1954 25.2188 38.7787 25.0312C37.2579 24.2604 36.3412 23.125 36.0287 21.625C35.9246 21.125 35.8725 20.6042 35.8725 20.0625ZM42.6537 18.9062L42.685 15.0312C44.56 15.0312 46.0704 15.7188 47.2162 17.0938C47.9454 17.9896 48.31 18.9375 48.31 19.9375L44.4662 20.5938C44.4662 19.6562 43.9662 19.1042 42.9662 18.9375C42.8412 18.9167 42.7371 18.9062 42.6537 18.9062ZM56.995 28.1562V19.9688C57.0158 18.9479 57.4846 17.9479 58.4012 16.9688C59.5262 15.8021 60.9012 15.2083 62.5262 15.1875V19.125C61.9221 19.125 61.5054 19.3854 61.2762 19.9062C61.2137 20.0312 61.1825 20.1458 61.1825 20.25V21.8125H65.8387V20.2812C65.8179 19.5104 65.2762 19.125 64.2137 19.125V15.1875C65.7346 15.1875 67.0679 15.7083 68.2137 16.75C69.2137 17.6667 69.7242 18.7292 69.745 19.9375V25.8438H61.1825V28.1562C61.3283 28.7604 61.7867 29.0938 62.5575 29.1562V33C60.5992 33 59.0471 32.1979 57.9012 30.5938C57.2971 29.7396 56.995 28.9271 56.995 28.1562ZM64.2137 33V29.1875C65.3387 29.1667 66.0575 28.6354 66.37 27.5938L69.7762 28.875C69.4637 30.2083 68.6721 31.2812 67.4012 32.0938C66.4221 32.6979 65.3596 33 64.2137 33ZM78.7113 33V20.0312C78.7113 18.9896 79.1696 17.9792 80.0863 17C81.2529 15.7917 82.68 15.1771 84.3675 15.1562V19.3125C83.5342 19.4375 83.0654 19.8542 82.9613 20.5625V33H78.7113ZM85.805 19.3125V15.1562C87.2217 15.1771 88.43 15.5625 89.43 16.3125C90.3883 15.5417 91.5863 15.1562 93.0238 15.1562V19.3125C92.0654 19.3333 91.5758 19.75 91.555 20.5625V33H87.305V20.5625C87.2633 19.75 86.7633 19.3333 85.805 19.3125ZM94.43 19.3125V15.1562C96.4508 15.1562 98.0446 15.9583 99.2113 17.5625C99.8363 18.4375 100.149 19.2604 100.149 20.0312V33H95.8988V20.5625C95.8571 19.75 95.3675 19.3333 94.43 19.3125ZM108.677 28.875C108.677 30.0833 109.25 31.1042 110.396 31.9375C111.375 32.6458 112.563 33 113.959 33V29.1562C112.896 29.1562 112.302 28.9062 112.177 28.4062C112.157 28.2812 112.146 28.1562 112.146 28.0312V27.5938C112.167 27.2396 112.302 27 112.552 26.875C112.657 26.8125 113.042 26.6979 113.709 26.5312C115.334 26.0729 116.427 25.6771 116.99 25.3438V27.9062C116.99 28.5312 116.698 28.9271 116.115 29.0938C115.969 29.1354 115.813 29.1562 115.646 29.1562V33C116.938 32.9792 117.99 32.6458 118.802 32C119.573 32.6667 120.594 33 121.865 33V29.125C121.302 29.0833 121.011 28.75 120.99 28.125V19.9688C120.99 18.8229 120.511 17.7604 119.552 16.7812C118.49 15.7188 117.177 15.1875 115.615 15.1875V19.0312C116.511 19.0938 116.969 19.5 116.99 20.25V20.9688C116.99 21.5521 115.875 22.2188 113.646 22.9688C111.73 23.6354 110.636 24.0417 110.365 24.1875C109.261 24.9167 108.698 25.9479 108.677 27.2812V28.875ZM108.896 19.6562L112.521 21.0312C112.542 19.7188 113.032 19.0521 113.99 19.0312V15.1875C112.552 15.1875 111.292 15.7083 110.209 16.75C109.355 17.625 108.917 18.5938 108.896 19.6562ZM130.519 33V10.625H134.831V33H130.519ZM135.738 24.0312L139.581 15.1875H144.144L140.206 24.0312L144.206 33H139.675L135.738 24.0312ZM152.579 28.2812V15.1875H156.829V27.7812C156.87 28.5729 157.35 28.9792 158.266 29V33.1562C156.225 33.1562 154.631 32.3542 153.485 30.75C152.881 29.8958 152.579 29.0729 152.579 28.2812ZM159.704 33.1562V29C160.6 28.8958 161.089 28.4896 161.173 27.7812V15.1875H165.423V28.2812C165.423 29.2604 164.964 30.25 164.048 31.25C162.881 32.5 161.433 33.1354 159.704 33.1562Z"
        fill="white" />
</svg>