<svg width="20" height="18" viewBox="0 0 20 18" fill="none" xmlns="http://www.w3.org/2000/svg">
    <path
        d="M10 11.5C11.3807 11.5 12.5 10.3807 12.5 9C12.5 7.61929 11.3807 6.5 10 6.5C8.61929 6.5 7.5 7.61929 7.5 9C7.5 10.3807 8.61929 11.5 10 11.5Z"
        stroke="#5B758E" stroke-width="1.5" stroke-miterlimit="10" stroke-linecap="round" stroke-linejoin="round" />
    <path
        d="M1.66663 9.73333V8.26666C1.66663 7.4 2.37496 6.68333 3.24996 6.68333C4.75829 6.68333 5.37496 5.61666 4.61663 4.30833C4.18329 3.55833 4.44163 2.58333 5.19996 2.15L6.64163 1.325C7.29996 0.933331 8.14996 1.16666 8.54163 1.825L8.63329 1.98333C9.38329 3.29166 10.6166 3.29166 11.375 1.98333L11.4666 1.825C11.8583 1.16666 12.7083 0.933331 13.3666 1.325L14.8083 2.15C15.5666 2.58333 15.825 3.55833 15.3916 4.30833C14.6333 5.61666 15.25 6.68333 16.7583 6.68333C17.625 6.68333 18.3416 7.39166 18.3416 8.26666V9.73333C18.3416 10.6 17.6333 11.3167 16.7583 11.3167C15.25 11.3167 14.6333 12.3833 15.3916 13.6917C15.825 14.45 15.5666 15.4167 14.8083 15.85L13.3666 16.675C12.7083 17.0667 11.8583 16.8333 11.4666 16.175L11.375 16.0167C10.625 14.7083 9.39163 14.7083 8.63329 16.0167L8.54163 16.175C8.14996 16.8333 7.29996 17.0667 6.64163 16.675L5.19996 15.85C4.44163 15.4167 4.18329 14.4417 4.61663 13.6917C5.37496 12.3833 4.75829 11.3167 3.24996 11.3167C2.37496 11.3167 1.66663 10.6 1.66663 9.73333Z"
        stroke="#5B758E" stroke-width="1.5" stroke-miterlimit="10" stroke-linecap="round" stroke-linejoin="round" />
</svg>