<svg width="18" height="20" viewBox="0 0 18 20" fill="none" xmlns="http://www.w3.org/2000/svg">
    <path d="M5.66663 10.1667H11.5" stroke="#5B758E" stroke-width="1.5" stroke-miterlimit="10" stroke-linecap="round"
        stroke-linejoin="round" />
    <path d="M5.66663 13.5H9.31663" stroke="#5B758E" stroke-width="1.5" stroke-miterlimit="10" stroke-linecap="round"
        stroke-linejoin="round" />
    <path
        d="M7.33329 4.99999H10.6666C12.3333 4.99999 12.3333 4.16666 12.3333 3.33332C12.3333 1.66666 11.5 1.66666 10.6666 1.66666H7.33329C6.49996 1.66666 5.66663 1.66666 5.66663 3.33332C5.66663 4.99999 6.49996 4.99999 7.33329 4.99999Z"
        stroke="#5B758E" stroke-width="1.5" stroke-miterlimit="10" stroke-linecap="round" stroke-linejoin="round" />
    <path
        d="M12.3333 3.35001C15.1083 3.50001 16.5 4.52501 16.5 8.33334V13.3333C16.5 16.6667 15.6667 18.3333 11.5 18.3333H6.5C2.33333 18.3333 1.5 16.6667 1.5 13.3333V8.33334C1.5 4.53334 2.89167 3.50001 5.66667 3.35001"
        stroke="#5B758E" stroke-width="1.5" stroke-miterlimit="10" stroke-linecap="round" stroke-linejoin="round" />
</svg>