<svg width="20" height="20" viewBox="0 0 20 20" fill="none" xmlns="http://www.w3.org/2000/svg">
    <path
        d="M15 5.96667C14.95 5.95834 14.8917 5.95834 14.8417 5.96667C13.6917 5.92501 12.775 4.98334 12.775 3.81667C12.775 2.62501 13.7334 1.66667 14.925 1.66667C16.1167 1.66667 17.075 2.63334 17.075 3.81667C17.0667 4.98334 16.15 5.92501 15 5.96667Z"
        stroke="#5B758E" stroke-width="1.5" stroke-linecap="round" stroke-linejoin="round" />
    <path
        d="M14.1417 12.0334C15.2834 12.225 16.5417 12.025 17.425 11.4334C18.6 10.65 18.6 9.36669 17.425 8.58335C16.5334 7.99169 15.2584 7.79168 14.1167 7.99168"
        stroke="#5B758E" stroke-width="1.5" stroke-linecap="round" stroke-linejoin="round" />
    <path
        d="M4.9749 5.96667C5.0249 5.95834 5.08324 5.95834 5.13324 5.96667C6.28324 5.92501 7.1999 4.98334 7.1999 3.81667C7.1999 2.62501 6.24157 1.66667 5.0499 1.66667C3.85824 1.66667 2.8999 2.63334 2.8999 3.81667C2.90824 4.98334 3.8249 5.92501 4.9749 5.96667Z"
        stroke="#5B758E" stroke-width="1.5" stroke-linecap="round" stroke-linejoin="round" />
    <path
        d="M5.83328 12.0334C4.69162 12.225 3.43328 12.025 2.54995 11.4334C1.37495 10.65 1.37495 9.36669 2.54995 8.58335C3.44162 7.99169 4.71662 7.79168 5.85828 7.99168"
        stroke="#5B758E" stroke-width="1.5" stroke-linecap="round" stroke-linejoin="round" />
    <path
        d="M10 12.1917C9.95002 12.1833 9.89169 12.1833 9.84169 12.1917C8.69169 12.15 7.77502 11.2083 7.77502 10.0417C7.77502 8.85 8.73336 7.89166 9.92502 7.89166C11.1167 7.89166 12.075 8.85833 12.075 10.0417C12.0667 11.2083 11.15 12.1583 10 12.1917Z"
        stroke="#5B758E" stroke-width="1.5" stroke-linecap="round" stroke-linejoin="round" />
    <path
        d="M7.57498 14.8167C6.39998 15.6 6.39998 16.8833 7.57498 17.6667C8.90831 18.5583 11.0916 18.5583 12.425 17.6667C13.6 16.8833 13.6 15.6 12.425 14.8167C11.1 13.9333 8.90831 13.9333 7.57498 14.8167Z"
        stroke="#5B758E" stroke-width="1.5" stroke-linecap="round" stroke-linejoin="round" />
</svg>